<svg version="1.1" xmlns="http://www.w3.org/2000/svg" height="717" width="1024" viewBox="0 0 1462 1024"><path d="M700.3515 633.754448l5.42431-5.424309a5.265847 5.265847 0 0 1 7.453855 0l82.169147 82.163053a5.253657 5.253657 0 0 1 1.097052 1.602914h287.39089a18.3878 18.3878 0 0 0 18.39999-18.375611v-423.096145a18.3878 18.3878 0 0 0-18.39999-18.381705H357.553421a18.3878 18.3878 0 0 0-18.393895 18.381705v423.096145a18.3878 18.3878 0 0 0 18.393895 18.375611h394.853167l-61.47754-61.471445a5.265847 5.265847 0 0 1 0-7.44776l3.851869-3.851869-45.015674-45.015675a108.120507 108.120507 0 0 1-70.302709 25.811181c-59.77711 0-108.242402-48.233692-108.242402-107.730445 0-59.502847 48.465292-107.730445 108.242402-107.730444 59.77711 0 108.242402 48.227597 108.242402 107.730444h55.449852v5.253657h-55.577841a107.15754 107.15754 0 0 1-31.997332 71.338813l44.771885 44.771885z m93.011673 86.216049l-12.817217 12.823311a5.265847 5.265847 0 0 1-7.44776 0l-12.817217-12.823311H357.553421a26.268286 26.268286 0 0 1-26.280475-26.250002V407.280382H85.752849v-10.501219h245.520097v-126.160908a26.268286 26.268286 0 0 1 26.280475-26.250001h29.169377V215.448761a26.268286 26.268286 0 0 1 26.280475-26.256096h726.333334a26.268286 26.268286 0 0 1 26.280475 26.256096v423.096145a26.268286 26.268286 0 0 1-26.280475 26.256096h-29.169377v28.925588c0 5.911888-1.950314 11.360576-5.247563 15.748782h120.163694v10.501219h-431.720188z m-110.911894-207.586499c0-56.589567-46.106631-102.476788-102.988745-102.476787-56.876019 0-102.98265 45.887221-102.98265 102.482882 0 56.595661 46.106631 102.476788 102.98265 102.476788 55.108547 0 100.105938-43.071456 102.854661-97.223131h-21.185281c-2.71825 42.541214-38.24443 76.202407-81.66938 76.202407-45.192422 0-81.833938-36.470863-81.833937-81.456064 0-44.991296 36.641516-81.456064 81.833937-81.456064 45.198516 0 81.840032 36.464769 81.840032 81.456064h21.148713z m-26.40237 0c0-42.078015-34.28895-76.196312-76.586375-76.196312S502.882254 470.305984 502.882254 512.383998s34.282855 76.202407 76.58028 76.202408c40.529953 0 73.691378-31.314722 76.403533-70.94875h-85.630954v-5.253658h85.813796z m454.118321 144.530424h29.169377a18.3878 18.3878 0 0 0 18.393894-18.375611V215.448761a18.3878 18.3878 0 0 0-18.393894-18.375611H413.003273a18.3878 18.3878 0 0 0-18.39999 18.375611v28.925588H1083.886754a26.268286 26.268286 0 0 1 26.280476 26.256096v386.290072zM353.805162 851.354588h26.40237v-10.507314H353.799067v-26.280475h-10.562167V840.847274h-26.402369v10.507314h26.402369V877.641158h10.562167V851.354588zM36.964536 588.5925h26.40237v-10.513409H36.964536v-26.27438H26.40237v26.280475H0v10.507314h26.40237v26.274381h10.562166v-26.280475z m290.432161-499.255889h26.408465v-10.507314h-26.408465V52.548822h-10.556072V78.829297h-26.408464v10.507314h26.408464v26.280475h10.556072V89.336611z m1108.936095 394.146179H1462.735161v-10.507315h-26.402369v-26.280475h-10.562167V472.975475h-26.40237v10.507315h26.40237v26.280475h10.562167V483.48279z m-79.231488 225.986487v10.50122h-89.726613v-10.50122h89.720518z m-31.747448-137.960304a23.69631 23.69631 0 0 1-23.745068-23.647552 23.69631 23.69631 0 0 1 23.745068-23.647552 23.69631 23.69631 0 0 1 23.745067 23.647552 23.69631 23.69631 0 0 1-23.745067 23.647552z m0-7.874391a15.815824 15.815824 0 0 0 15.858487-15.773161 15.815824 15.815824 0 0 0-15.858487-15.767066 15.815824 15.815824 0 0 0-15.858487 15.767066 15.815824 15.815824 0 0 0 15.858487 15.773161z m-132.011848 296.916953a23.69631 23.69631 0 0 1-23.751163-23.647552 23.69631 23.69631 0 0 1 23.745068-23.647551 23.69631 23.69631 0 0 1 23.745067 23.647551 23.69631 23.69631 0 0 1-23.745067 23.647552z m0-7.880485a15.815824 15.815824 0 0 0 15.858487-15.767067 15.815824 15.815824 0 0 0-15.864582-15.767066 15.815824 15.815824 0 0 0-15.858487 15.767066 15.815824 15.815824 0 0 0 15.858487 15.767067zM744.477344 44.662241a22.379848 22.379848 0 0 1-22.428605-22.33109A22.379848 22.379848 0 0 1 744.483439 0.000061c12.384491 0 22.428606 9.995357 22.428606 22.33109a22.379848 22.379848 0 0 1-22.428606 22.33109z m0-5.247562a17.126191 17.126191 0 0 0 17.174949-17.083528 17.126191 17.126191 0 0 0-17.174949-17.083528 17.126191 17.126191 0 0 0-17.174948 17.083528 17.126191 17.126191 0 0 0 17.174948 17.083528zM530.034275 495.184671l-5.826562-1.743093a57.887744 57.887744 0 0 1 28.492862-34.514455l2.83405 5.375552a51.811298 51.811298 0 0 0-25.50035 30.881996z m40.200838-3.821396v-5.247562h61.264224v5.247562H570.235113z m0 52.554856v-5.247563h61.264224v5.247563H570.235113z m-51.500467 407.164521v10.580451l-16.650802 1.645577v8.313212h-12.110228v-7.313676c-7.149118 0.505863-15.175877 1.011725-24.092467 1.517588l-1.645577-11.342293c11.104598-0.505863 19.685977-0.926399 25.738044-1.261609v-7.057697h-21.575344l-2.773102-10.586545c2.437892-2.767007 5.046436-6.509171 7.819539-11.214303h-11.092409v-11.592177h16.516718c0.841073-2.011261 1.767472-4.449153 2.779197-7.307581l13.115859 2.145345-2.011261 5.162236h28.505051v11.592177h-33.807466a104.78669 104.78669 0 0 1-6.55793 11.092408h9.081148v-7.185687h12.110228v7.185687h17.912411v10.70844h-17.918506v6.301951c1.523682-0.170652 4.376016-0.420536 8.58138-0.755747l8.075517-0.627757z m19.551893-4.790457c-1.511493 9.995357-4.96111 18.899757-10.342756 26.7132l-9.081148-9.446831c5.210994-7.734212 7.947528-16.845833 8.197412-27.347053v-21.173091c16.394823-1.590724 28.846356-4.327258 37.34241-8.191317l8.575285 9.70281c-9.2518 4.034711-20.520955 6.807813-33.807467 8.319306v9.952694h35.952811v11.470282H563.518721v25.451591h-12.737986v-25.451591h-12.494196z m24.476435 27.852915v49.263701h-13.371837v-4.406489h-60.051373v4.406489h-13.371837v-49.269796h86.788953z m-73.42321 33.764803h60.051373v-6.423845h-60.051373v6.423845z m0-16.760507h60.051373v-6.173961h-60.051373v6.173961z m108.242402-79.255867h92.335157v12.847691h-44.150223v7.313676c-0.255979 7.642791-0.719178 13.987405-1.389598 19.027746h55.504704v12.725796h-37.720283v39.067218c0 4.113943 1.889366 6.167867 5.680288 6.167867h13.499827c2.267239 0 3.992048-0.920304 5.168331-2.773102 1.340841-1.676051 2.273334-7.350244 2.773102-17.004296l12.366207 4.156605c-1.097051 13.603437-3.071744 21.672859-5.930172 24.196078-2.608544 2.431797-6.557929 3.650743-11.860344 3.650743h-20.051662c-9.842989 0-14.761436-5.253657-14.761435-15.754877v-41.706236h-6.813908c-2.352566 10.921756-5.546204 20.204029-9.58701 27.852915-7.819538 13.853321-20.435629 24.439867-37.848273 31.753543l-7.43557-11.72626c17.235896-7.892675 28.925588-17.808801 35.069075-29.736187 2.437892-5.375552 4.497911-11.427618 6.180057-18.144011h-39.103787v-12.725796h41.371026c0.761841-6.052067 1.261609-12.39668 1.517588-19.027746v-7.313676h-34.819192v-12.847691z m187.071638 48.757839c-1.767472 3.95548-3.742164 7.862201-5.930173 11.72626l-8.197411-10.208672c6.978466-13.859416 11.647029-32.387394 13.999594-55.571747l12.87207 2.26724a300.860244 300.860244 0 0 1-2.401324 15.626887h31.540227v12.725796h-6.813908c-0.755746 20.246693-4.369921 37.470399-10.848619 51.665025 5.972835 9.660147 13.164616 17.309033 21.575344 22.934468l-7.57575 11.214303c-7.734212-5.625436-14.54812-13.018343-20.435629-22.178722A87.465468 87.465468 0 0 1 780.369208 1023.914674l-7.063791-11.336198c9.081147-5.972835 16.443581-13.9935 22.075111-24.074183-4.034711-8.063328-7.606223-17.345601-10.72063-27.852915z m7.697643-23.434236l-1.389598 5.040341c2.687776 12.012713 6.180056 22.812574 10.470746 32.387395 3.614175-10.83643 5.674193-23.312342 6.180056-37.421641h-15.261204z m-44.156317 29.364408c-0.585094 1.846703-1.218946 3.60808-1.889367 5.290226h25.232182v11.092408c-1.938124 7.136929-5.680288 13.524206-11.232587 19.149641 4.461342 1.932029 9.081147 4.156606 13.8777 6.679824l-7.191781 10.586546a201.443011 201.443011 0 0 0-17.156665-8.947064c-8.069422 5.119573-18.454842 9.3676-31.156259 12.725796l-6.308045-11.336197c8.91659-2.02345 16.650802-4.540574 23.214826-7.56356-5.972835-2.437892-11.232587-4.540574-15.773161-6.301951 3.029081-5.040342 5.680288-9.830799 7.947528-14.365278h-12.360113v-11.720165h17.534538c1.846703-5.119573 2.687776-7.392907 2.523218-6.801719l12.737986 1.511493z m11.226492 17.004296h-18.284189c-1.097051 2.102682-2.82186 5.174426-5.180521 9.203042 2.693871 0.841073 6.643256 2.267239 11.860344 4.284596 5.217089-4.113943 9.081147-8.611853 11.604366-13.481543z m-31.784016-74.465409c2.773102 4.534479 5.253657 9.489494 7.43557 14.871141l-10.086778 4.534479a100.258306 100.258306 0 0 0-8.197411-15.876771l10.848619-3.534943z m45.283843 4.40649a84.716745 84.716745 0 0 1-9.58701 15.498898l-9.58701-5.040342c3.534943-5.119573 6.478698-10.287904 8.831263-15.498898l10.342757 5.040342z m-57.144187 16.13275h23.46471v-22.812574h12.110228v22.812574h21.441259v11.464187h-21.441259v0.255978c6.557929 2.60245 13.243848 5.625436 20.051661 9.068958l-6.807813 10.336662a207.354899 207.354899 0 0 0-13.243848-9.830799v13.225564h-12.110228v-19.777399c-4.29069 8.56919-10.933945 16.090087-19.929767 22.550501l-6.564024-10.580451c8.325401-4.705131 14.340899-9.788136 18.0404-15.249014h-15.011319v-11.464187z m128.294063 92.49362l-2.779197-12.354018c3.705596 0.591189 6.728582 0.883736 9.081147 0.883736 2.693871 0 4.040806-1.596819 4.040806-4.790457v-25.451592c-6.643256 2.352566-10.891282 3.821396-12.737985 4.412584l-3.413049-12.981774c5.552299-1.261609 10.933945-2.773102 16.151034-4.534479v-25.201708h-13.621721v-12.731891h13.621721v-22.306711h12.865975v22.306711h10.726725v12.731891h-10.726725v20.033377a237.487243 237.487243 0 0 0 10.220862-5.040342v12.853785l-10.220862 5.040342v34.148771c0 8.654516-4.1627 12.981775-12.488101 12.981775h-10.726725z m50.586257-54.316232c-1.517588 20.923208-6.265382 39.487755-14.261667 55.699736l-10.342757-9.203043c8.160843-15.956003 12.323544-36.580568 12.494196-61.867602v-41.834226h69.126426v33.393025h-22.708963v11.84206h25.482065v11.97005h-25.475971v12.098038h19.929767v43.351814h-12.110228v-5.168331h-28.383157v5.168331h-12.110228v-43.351814h19.807872V967.843159h-21.453449z m21.44126-23.81211h-20.813502v10.080683l-0.121895 1.767472h20.935397v-11.848155z m-7.691549 62.501455h28.383157v-14.993036h-28.383157v14.993036z m30.400512-83.92443h-43.522465v9.830799h43.516371v-9.830799z m44.400107-2.395229h17.03477l-3.15707 64.140937h-10.726724l-3.150976-64.140937z m15.517182 73.593863c1.852798 1.846703 2.779197 4.113943 2.779197 6.801718 0 2.773102-0.926399 5.083005-2.779197 6.929708-2.011261 1.767472-4.369921 2.645113-7.063791 2.645113a9.263989 9.263989 0 0 1-6.813908-2.767008c-1.932029-1.682145-2.901091-3.949385-2.901092-6.807813s0.975157-5.119573 2.901092-6.801718c1.767472-1.767472 4.040806-2.651207 6.813908-2.651208 2.864523 0 5.217089 0.883736 7.069886 2.651208z"></path></svg>